<mxfile host="app.diagrams.net" agent="Mozilla/5.0 (Macintosh; Intel Mac OS X 10_15_7) AppleWebKit/605.1.15 (KHTML, like Gecko) Version/18.5 Safari/605.1.15" version="27.0.6">
  <diagram name="第 1 页" id="g0TQbD_SmApfyCbpuAtV">
    <mxGraphModel dx="907" dy="608" grid="1" gridSize="10" guides="1" tooltips="1" connect="1" arrows="1" fold="1" page="1" pageScale="1" pageWidth="827" pageHeight="1169" math="0" shadow="0">
      <root>
        <mxCell id="0" />
        <mxCell id="1" parent="0" />
        <mxCell id="fbYLBw9EiOXwo4pTgt4o-1" value="" style="endArrow=none;html=1;rounded=0;" edge="1" parent="1">
          <mxGeometry width="50" height="50" relative="1" as="geometry">
            <mxPoint x="170" y="580" as="sourcePoint" />
            <mxPoint x="170" y="20" as="targetPoint" />
            <Array as="points">
              <mxPoint x="170" y="210" />
            </Array>
          </mxGeometry>
        </mxCell>
        <mxCell id="fbYLBw9EiOXwo4pTgt4o-2" value="&lt;font face=&quot;Times New Roman&quot; style=&quot;font-size: 18px;&quot;&gt;Channel 0&lt;/font&gt;&lt;div&gt;&lt;font face=&quot;Times New Roman&quot; style=&quot;font-size: 18px;&quot;&gt;频道0&lt;/font&gt;&lt;/div&gt;" style="rounded=0;whiteSpace=wrap;html=1;fillColor=#d5e8d4;strokeColor=#82b366;" vertex="1" parent="1">
          <mxGeometry x="170" y="394" width="260" height="60" as="geometry" />
        </mxCell>
        <mxCell id="fbYLBw9EiOXwo4pTgt4o-3" value="&lt;font face=&quot;Times New Roman&quot; style=&quot;font-size: 18px;&quot;&gt;Channel 1&lt;/font&gt;&lt;div&gt;&lt;font face=&quot;Times New Roman&quot; style=&quot;font-size: 18px;&quot;&gt;频道1&lt;/font&gt;&lt;/div&gt;" style="rounded=0;whiteSpace=wrap;html=1;fillColor=#d5e8d4;strokeColor=#82b366;" vertex="1" parent="1">
          <mxGeometry x="430" y="394" width="140" height="60" as="geometry" />
        </mxCell>
        <mxCell id="fbYLBw9EiOXwo4pTgt4o-5" value="&lt;font face=&quot;Times New Roman&quot; style=&quot;font-size: 18px;&quot;&gt;Channel 2&lt;/font&gt;&lt;div&gt;&lt;font face=&quot;Times New Roman&quot; style=&quot;font-size: 18px;&quot;&gt;频道2&lt;/font&gt;&lt;/div&gt;" style="rounded=0;whiteSpace=wrap;html=1;fillColor=#d5e8d4;strokeColor=#82b366;" vertex="1" parent="1">
          <mxGeometry x="570" y="394" width="140" height="60" as="geometry" />
        </mxCell>
        <mxCell id="fbYLBw9EiOXwo4pTgt4o-6" value="&lt;font face=&quot;Times New Roman&quot; style=&quot;font-size: 18px;&quot;&gt;Channel 3&lt;/font&gt;&lt;div&gt;&lt;font face=&quot;Times New Roman&quot; style=&quot;font-size: 18px;&quot;&gt;频道3&lt;/font&gt;&lt;/div&gt;" style="rounded=0;whiteSpace=wrap;html=1;fillColor=#d5e8d4;strokeColor=#82b366;" vertex="1" parent="1">
          <mxGeometry x="710" y="394" width="140" height="60" as="geometry" />
        </mxCell>
        <mxCell id="fbYLBw9EiOXwo4pTgt4o-7" value="&lt;font face=&quot;Times New Roman&quot; style=&quot;font-size: 18px;&quot;&gt;Channel 0&lt;/font&gt;&lt;div&gt;&lt;font face=&quot;Times New Roman&quot; style=&quot;font-size: 18px;&quot;&gt;频道0&lt;/font&gt;&lt;/div&gt;" style="rounded=0;whiteSpace=wrap;html=1;fillColor=#d5e8d4;strokeColor=#82b366;" vertex="1" parent="1">
          <mxGeometry x="220" y="220" width="210" height="60" as="geometry" />
        </mxCell>
        <mxCell id="fbYLBw9EiOXwo4pTgt4o-8" value="&lt;font face=&quot;Times New Roman&quot; style=&quot;font-size: 18px;&quot;&gt;Channel 1&lt;/font&gt;&lt;div&gt;&lt;font face=&quot;Times New Roman&quot; style=&quot;font-size: 18px;&quot;&gt;频道1&lt;/font&gt;&lt;/div&gt;" style="rounded=0;whiteSpace=wrap;html=1;fillColor=#d5e8d4;strokeColor=#82b366;" vertex="1" parent="1">
          <mxGeometry x="430" y="220" width="140" height="60" as="geometry" />
        </mxCell>
        <mxCell id="fbYLBw9EiOXwo4pTgt4o-9" value="&lt;font face=&quot;Times New Roman&quot; style=&quot;font-size: 18px;&quot;&gt;Channel 2&lt;/font&gt;&lt;div&gt;&lt;font face=&quot;Times New Roman&quot; style=&quot;font-size: 18px;&quot;&gt;频道2&lt;/font&gt;&lt;/div&gt;" style="rounded=0;whiteSpace=wrap;html=1;fillColor=#d5e8d4;strokeColor=#82b366;" vertex="1" parent="1">
          <mxGeometry x="570" y="220" width="140" height="60" as="geometry" />
        </mxCell>
        <mxCell id="fbYLBw9EiOXwo4pTgt4o-10" value="&lt;font face=&quot;Times New Roman&quot; style=&quot;font-size: 18px;&quot;&gt;Channel 3&lt;/font&gt;&lt;div&gt;&lt;font face=&quot;Times New Roman&quot; style=&quot;font-size: 18px;&quot;&gt;频道3&lt;/font&gt;&lt;/div&gt;" style="rounded=0;whiteSpace=wrap;html=1;fillColor=#d5e8d4;strokeColor=#82b366;" vertex="1" parent="1">
          <mxGeometry x="710" y="220" width="140" height="60" as="geometry" />
        </mxCell>
        <mxCell id="fbYLBw9EiOXwo4pTgt4o-11" value="&lt;font size=&quot;4&quot; face=&quot;Times New Roman&quot;&gt;Preamble&lt;/font&gt;&lt;br&gt;&lt;div&gt;&lt;font size=&quot;4&quot; face=&quot;Times New Roman&quot;&gt;前导码&lt;/font&gt;&lt;/div&gt;" style="rounded=0;whiteSpace=wrap;html=1;fillColor=#e1d5e7;strokeColor=#9673a6;" vertex="1" parent="1">
          <mxGeometry x="220" y="75" width="100" height="60" as="geometry" />
        </mxCell>
        <mxCell id="fbYLBw9EiOXwo4pTgt4o-12" value="&lt;font size=&quot;4&quot; face=&quot;Times New Roman&quot;&gt;Header&lt;/font&gt;&lt;div&gt;&lt;font size=&quot;4&quot; face=&quot;Times New Roman&quot;&gt;报头&lt;/font&gt;&lt;/div&gt;" style="rounded=0;whiteSpace=wrap;html=1;fillColor=#e1d5e7;strokeColor=#9673a6;" vertex="1" parent="1">
          <mxGeometry x="320" y="75" width="110" height="60" as="geometry" />
        </mxCell>
        <mxCell id="fbYLBw9EiOXwo4pTgt4o-13" value="&lt;font size=&quot;4&quot; face=&quot;Times New Roman&quot;&gt;Payload&lt;/font&gt;&lt;div&gt;&lt;font size=&quot;4&quot; face=&quot;Times New Roman&quot;&gt;有效载荷&lt;/font&gt;&lt;/div&gt;" style="rounded=0;whiteSpace=wrap;html=1;fillColor=#e1d5e7;strokeColor=#9673a6;" vertex="1" parent="1">
          <mxGeometry x="430" y="75" width="420" height="60" as="geometry" />
        </mxCell>
        <mxCell id="fbYLBw9EiOXwo4pTgt4o-14" value="" style="shape=ellipse;fillColor=#919191;strokeColor=none;html=1;sketch=0;" vertex="1" parent="1">
          <mxGeometry x="870" y="100" width="10" height="10" as="geometry" />
        </mxCell>
        <mxCell id="fbYLBw9EiOXwo4pTgt4o-15" value="" style="shape=ellipse;fillColor=#919191;strokeColor=none;html=1;sketch=0;" vertex="1" parent="1">
          <mxGeometry x="890" y="100" width="10" height="10" as="geometry" />
        </mxCell>
        <mxCell id="fbYLBw9EiOXwo4pTgt4o-16" value="" style="shape=ellipse;fillColor=#919191;strokeColor=none;html=1;sketch=0;" vertex="1" parent="1">
          <mxGeometry x="910" y="100" width="10" height="10" as="geometry" />
        </mxCell>
        <mxCell id="fbYLBw9EiOXwo4pTgt4o-17" value="" style="shape=ellipse;fillColor=#919191;strokeColor=none;html=1;sketch=0;" vertex="1" parent="1">
          <mxGeometry x="870" y="252" width="10" height="10" as="geometry" />
        </mxCell>
        <mxCell id="fbYLBw9EiOXwo4pTgt4o-18" value="" style="shape=ellipse;fillColor=#919191;strokeColor=none;html=1;sketch=0;" vertex="1" parent="1">
          <mxGeometry x="890" y="252" width="10" height="10" as="geometry" />
        </mxCell>
        <mxCell id="fbYLBw9EiOXwo4pTgt4o-19" value="" style="shape=ellipse;fillColor=#919191;strokeColor=none;html=1;sketch=0;" vertex="1" parent="1">
          <mxGeometry x="910" y="252" width="10" height="10" as="geometry" />
        </mxCell>
        <mxCell id="fbYLBw9EiOXwo4pTgt4o-20" value="" style="shape=ellipse;fillColor=#919191;strokeColor=none;html=1;sketch=0;" vertex="1" parent="1">
          <mxGeometry x="870" y="414" width="10" height="10" as="geometry" />
        </mxCell>
        <mxCell id="fbYLBw9EiOXwo4pTgt4o-21" value="" style="shape=ellipse;fillColor=#919191;strokeColor=none;html=1;sketch=0;" vertex="1" parent="1">
          <mxGeometry x="890" y="414" width="10" height="10" as="geometry" />
        </mxCell>
        <mxCell id="fbYLBw9EiOXwo4pTgt4o-22" value="" style="shape=ellipse;fillColor=#919191;strokeColor=none;html=1;sketch=0;" vertex="1" parent="1">
          <mxGeometry x="910" y="414" width="10" height="10" as="geometry" />
        </mxCell>
        <mxCell id="fbYLBw9EiOXwo4pTgt4o-23" value="&lt;font style=&quot;font-size: 18px;&quot; face=&quot;Times New Roman&quot;&gt;Packet&lt;/font&gt;&lt;div&gt;&lt;font size=&quot;4&quot; face=&quot;Times New Roman&quot;&gt;数据包&lt;/font&gt;&lt;/div&gt;" style="text;html=1;align=center;verticalAlign=middle;resizable=0;points=[];autosize=1;strokeColor=none;fillColor=none;" vertex="1" parent="1">
          <mxGeometry x="775" y="17" width="80" height="60" as="geometry" />
        </mxCell>
        <mxCell id="fbYLBw9EiOXwo4pTgt4o-24" value="&lt;font size=&quot;4&quot; face=&quot;Times New Roman&quot;&gt;Transmitter&lt;/font&gt;&lt;div&gt;&lt;font size=&quot;4&quot; face=&quot;Times New Roman&quot;&gt;传输者&lt;/font&gt;&lt;/div&gt;" style="text;html=1;align=center;verticalAlign=middle;resizable=0;points=[];autosize=1;strokeColor=none;fillColor=none;" vertex="1" parent="1">
          <mxGeometry x="760" y="167" width="110" height="60" as="geometry" />
        </mxCell>
        <mxCell id="fbYLBw9EiOXwo4pTgt4o-25" value="&lt;font size=&quot;4&quot; face=&quot;Times New Roman&quot;&gt;Receiver&lt;/font&gt;&lt;div&gt;&lt;font size=&quot;4&quot; face=&quot;Times New Roman&quot;&gt;接收者&lt;/font&gt;&lt;/div&gt;" style="text;html=1;align=center;verticalAlign=middle;resizable=0;points=[];autosize=1;strokeColor=none;fillColor=none;" vertex="1" parent="1">
          <mxGeometry x="770" y="334" width="90" height="60" as="geometry" />
        </mxCell>
        <mxCell id="fbYLBw9EiOXwo4pTgt4o-26" value="" style="endArrow=classic;startArrow=classic;html=1;rounded=0;" edge="1" parent="1">
          <mxGeometry width="50" height="50" relative="1" as="geometry">
            <mxPoint x="430" y="212" as="sourcePoint" />
            <mxPoint x="570" y="212" as="targetPoint" />
            <Array as="points">
              <mxPoint x="500" y="212" />
            </Array>
          </mxGeometry>
        </mxCell>
        <mxCell id="fbYLBw9EiOXwo4pTgt4o-27" value="&lt;font face=&quot;Times New Roman&quot; style=&quot;font-size: 18px;&quot;&gt;Hopping Period&lt;/font&gt;&lt;div&gt;&lt;font face=&quot;Times New Roman&quot; style=&quot;font-size: 18px;&quot;&gt;跳频周期&lt;/font&gt;&lt;/div&gt;" style="text;html=1;align=center;verticalAlign=middle;resizable=0;points=[];autosize=1;strokeColor=none;fillColor=none;" vertex="1" parent="1">
          <mxGeometry x="430" y="163" width="140" height="60" as="geometry" />
        </mxCell>
        <mxCell id="fbYLBw9EiOXwo4pTgt4o-28" value="" style="endArrow=classic;html=1;rounded=0;entryX=0;entryY=1;entryDx=0;entryDy=0;" edge="1" parent="1" target="fbYLBw9EiOXwo4pTgt4o-8">
          <mxGeometry width="50" height="50" relative="1" as="geometry">
            <mxPoint x="430" y="340" as="sourcePoint" />
            <mxPoint x="570" y="170" as="targetPoint" />
            <Array as="points">
              <mxPoint x="430" y="330" />
            </Array>
          </mxGeometry>
        </mxCell>
        <mxCell id="fbYLBw9EiOXwo4pTgt4o-29" value="" style="endArrow=classic;html=1;rounded=0;entryX=0;entryY=1;entryDx=0;entryDy=0;exitX=0.866;exitY=0.084;exitDx=0;exitDy=0;exitPerimeter=0;" edge="1" parent="1" source="fbYLBw9EiOXwo4pTgt4o-31">
          <mxGeometry width="50" height="50" relative="1" as="geometry">
            <mxPoint x="570" y="330" as="sourcePoint" />
            <mxPoint x="570" y="280" as="targetPoint" />
            <Array as="points" />
          </mxGeometry>
        </mxCell>
        <mxCell id="fbYLBw9EiOXwo4pTgt4o-30" value="" style="endArrow=classic;html=1;rounded=0;entryX=0;entryY=1;entryDx=0;entryDy=0;" edge="1" parent="1">
          <mxGeometry width="50" height="50" relative="1" as="geometry">
            <mxPoint x="710" y="340" as="sourcePoint" />
            <mxPoint x="710" y="281" as="targetPoint" />
            <Array as="points" />
          </mxGeometry>
        </mxCell>
        <mxCell id="fbYLBw9EiOXwo4pTgt4o-31" value="&lt;font style=&quot;font-size: 18px;&quot; face=&quot;Times New Roman&quot;&gt;FreqHopping Interrupt&lt;/font&gt;&lt;div&gt;&lt;font style=&quot;font-size: 18px;&quot; face=&quot;Times New Roman&quot;&gt;跳频中断&lt;/font&gt;&lt;/div&gt;" style="text;html=1;align=center;verticalAlign=middle;resizable=0;points=[];autosize=1;strokeColor=none;fillColor=none;" vertex="1" parent="1">
          <mxGeometry x="405" y="334" width="190" height="60" as="geometry" />
        </mxCell>
        <mxCell id="fbYLBw9EiOXwo4pTgt4o-33" value="" style="endArrow=classic;html=1;rounded=0;entryX=0;entryY=1;entryDx=0;entryDy=0;" edge="1" parent="1">
          <mxGeometry width="50" height="50" relative="1" as="geometry">
            <mxPoint x="430" y="515" as="sourcePoint" />
            <mxPoint x="430" y="455" as="targetPoint" />
            <Array as="points">
              <mxPoint x="430" y="505" />
            </Array>
          </mxGeometry>
        </mxCell>
        <mxCell id="fbYLBw9EiOXwo4pTgt4o-34" value="" style="endArrow=classic;html=1;rounded=0;entryX=0;entryY=1;entryDx=0;entryDy=0;exitX=0.866;exitY=0.084;exitDx=0;exitDy=0;exitPerimeter=0;" edge="1" parent="1" source="fbYLBw9EiOXwo4pTgt4o-35">
          <mxGeometry width="50" height="50" relative="1" as="geometry">
            <mxPoint x="570" y="505" as="sourcePoint" />
            <mxPoint x="570" y="455" as="targetPoint" />
            <Array as="points" />
          </mxGeometry>
        </mxCell>
        <mxCell id="fbYLBw9EiOXwo4pTgt4o-35" value="&lt;font style=&quot;font-size: 18px;&quot; face=&quot;Times New Roman&quot;&gt;FreqHopping Interrupt&lt;/font&gt;&lt;div&gt;&lt;font style=&quot;font-size: 18px;&quot; face=&quot;Times New Roman&quot;&gt;跳频中断&lt;/font&gt;&lt;/div&gt;" style="text;html=1;align=center;verticalAlign=middle;resizable=0;points=[];autosize=1;strokeColor=none;fillColor=none;" vertex="1" parent="1">
          <mxGeometry x="405" y="509" width="190" height="60" as="geometry" />
        </mxCell>
        <mxCell id="fbYLBw9EiOXwo4pTgt4o-36" value="" style="endArrow=classic;html=1;rounded=0;entryX=0;entryY=1;entryDx=0;entryDy=0;" edge="1" parent="1">
          <mxGeometry width="50" height="50" relative="1" as="geometry">
            <mxPoint x="710" y="513" as="sourcePoint" />
            <mxPoint x="710" y="454" as="targetPoint" />
            <Array as="points" />
          </mxGeometry>
        </mxCell>
      </root>
    </mxGraphModel>
  </diagram>
</mxfile>
